<?xml version="1.0" standalone="no"?>
<!DOCTYPE svg PUBLIC "-//W3C//DTD SVG 20010904//EN"
 "http://www.w3.org/TR/2001/REC-SVG-20010904/DTD/svg10.dtd">
<svg version="1.0" xmlns="http://www.w3.org/2000/svg"
 width="800.000000pt" height="800.000000pt" viewBox="0 0 800.000000 800.000000"
 preserveAspectRatio="xMidYMid meet">
<metadata>
Created by potrace 1.14, written by Peter Selinger 2001-2017
</metadata>
<g transform="translate(0.000000,800.000000) scale(0.100000,-0.100000)"
fill="#000000" stroke="none">
<path d="M3535 7984 c-1763 -201 -3200 -1566 -3489 -3314 -39 -237 -46 -337
-46 -665 0 -328 7 -428 46 -665 273 -1652 1572 -2971 3224 -3274 258 -47 413
-60 725 -60 312 0 467 13 725 60 1538 282 2778 1445 3159 2962 85 338 116 600
116 977 0 377 -31 639 -116 977 -405 1616 -1784 2821 -3436 3002 -182 20 -732
20 -908 0z m710 -1449 c365 -57 692 -256 914 -555 131 -176 214 -401 256 -691
23 -163 18 -248 -18 -271 -7 -4 -145 -8 -308 -8 -225 0 -299 3 -313 13 -13 10
-21 41 -32 132 -30 248 -87 389 -204 505 -143 141 -323 210 -551 210 -371 0
-684 -219 -764 -535 -20 -78 -19 -207 1 -276 55 -185 131 -245 763 -604 691
-391 1000 -624 1229 -928 190 -251 282 -554 252 -836 -35 -336 -169 -616 -403
-837 -298 -283 -715 -432 -1147 -411 -224 12 -386 50 -558 132 -219 105 -387
239 -515 410 -156 209 -280 579 -281 841 -1 80 3 115 13 127 12 15 47 17 327
17 288 0 314 -1 323 -17 5 -10 14 -67 20 -126 20 -186 72 -335 156 -446 109
-144 269 -226 489 -250 324 -37 646 102 807 347 62 95 90 169 96 263 12 163
-58 316 -219 480 -185 187 -387 325 -993 679 -590 344 -770 480 -889 672 -185
299 -225 670 -110 1018 129 386 448 710 849 861 263 99 531 127 810 84z"/>
</g>
</svg>
